<?xml version="1.0" encoding="UTF-8" standalone="no"?>
<!DOCTYPE svg PUBLIC "-//W3C//DTD SVG 1.1//EN"
 "http://www.w3.org/Graphics/SVG/1.1/DTD/svg11.dtd">
<!-- Generated by graphviz version 2.43.0 (0)
 -->
<!-- Title: G Pages: 1 -->
<svg width="704pt" height="878pt"
 viewBox="0.00 0.00 704.00 878.00" xmlns="http://www.w3.org/2000/svg" xmlns:xlink="http://www.w3.org/1999/xlink">
<g id="graph0" class="graph" transform="scale(1 1) rotate(0) translate(4 874)">
<title>G</title>
<polygon fill="white" stroke="transparent" points="-4,4 -4,-874 700,-874 700,4 -4,4"/>
<g id="clust1" class="cluster">
<title>cluster_root</title>
<g id="a_clust1"><a xlink:title="eventq_index=0&#10;full_system=false&#10;sim_quantum=0&#10;time_sync_enable=false&#10;time_sync_period=100000000000&#10;time_sync_spin_threshold=100000000">
<path fill="#bab6ae" stroke="#000000" d="M20,-8C20,-8 676,-8 676,-8 682,-8 688,-14 688,-20 688,-20 688,-850 688,-850 688,-856 682,-862 676,-862 676,-862 20,-862 20,-862 14,-862 8,-856 8,-850 8,-850 8,-20 8,-20 8,-14 14,-8 20,-8"/>
<text text-anchor="middle" x="348" y="-846.8" font-family="Arial" font-size="14.00" fill="#000000">root </text>
<text text-anchor="middle" x="348" y="-831.8" font-family="Arial" font-size="14.00" fill="#000000">: Root</text>
</a>
</g>
</g>
<g id="clust2" class="cluster">
<title>cluster_board</title>
<g id="a_clust2"><a xlink:title="auto_unlink_shared_backstore=false&#10;cache_line_size=64&#10;eventq_index=0&#10;exit_on_work_items=true&#10;init_param=0&#10;m5ops_base=0&#10;mem_mode=timing&#10;mem_ranges=0:8589934592&#10;memories=board.memory.mem_ctrl.dram&#10;mmap_using_noreserve=false&#10;multi_thread=false&#10;&#10;um_work_ids=16&#10;&#13;eadfile=&#10;&#13;edirect_paths=&#10;shadow_rom_ranges=&#10;shared_backstore=&#10;symbolfile=&#10;thermal_components=&#10;thermal_model=Null&#10;work_begin_ckpt_count=0&#10;work_begin_cpu_id_exit=&#45;1&#10;work_begin_exit_count=0&#10;work_cpus_ckpt_count=0&#10;work_end_ckpt_count=0&#10;work_end_exit_count=0&#10;work_item_id=&#45;1&#10;workload=board.workload">
<path fill="#e4e7eb" stroke="#000000" d="M28,-16C28,-16 668,-16 668,-16 674,-16 680,-22 680,-28 680,-28 680,-804 680,-804 680,-810 674,-816 668,-816 668,-816 28,-816 28,-816 22,-816 16,-810 16,-804 16,-804 16,-28 16,-28 16,-22 22,-16 28,-16"/>
<text text-anchor="middle" x="348" y="-800.8" font-family="Arial" font-size="14.00" fill="#000000">board </text>
<text text-anchor="middle" x="348" y="-785.8" font-family="Arial" font-size="14.00" fill="#000000">: SimpleBoard</text>
</a>
</g>
</g>
<g id="clust6" class="cluster">
<title>cluster_board_processor</title>
<g id="a_clust6"><a xlink:title="eventq_index=0&#10;thermal_domain=Null">
<path fill="#bab6ae" stroke="#000000" d="M440,-146C440,-146 660,-146 660,-146 666,-146 672,-152 672,-158 672,-158 672,-332 672,-332 672,-338 666,-344 660,-344 660,-344 440,-344 440,-344 434,-344 428,-338 428,-332 428,-332 428,-158 428,-158 428,-152 434,-146 440,-146"/>
<text text-anchor="middle" x="550" y="-328.8" font-family="Arial" font-size="14.00" fill="#000000">processor </text>
<text text-anchor="middle" x="550" y="-313.8" font-family="Arial" font-size="14.00" fill="#000000">: SimpleProcessor</text>
</a>
</g>
</g>
<g id="clust7" class="cluster">
<title>cluster_board_processor_cores</title>
<g id="a_clust7"><a xlink:title="eventq_index=0&#10;thermal_domain=Null">
<path fill="#9f9c95" stroke="#000000" d="M448,-154C448,-154 652,-154 652,-154 658,-154 664,-160 664,-166 664,-166 664,-286 664,-286 664,-292 658,-298 652,-298 652,-298 448,-298 448,-298 442,-298 436,-292 436,-286 436,-286 436,-166 436,-166 436,-160 442,-154 448,-154"/>
<text text-anchor="middle" x="550" y="-282.8" font-family="Arial" font-size="14.00" fill="#000000">cores </text>
<text text-anchor="middle" x="550" y="-267.8" font-family="Arial" font-size="14.00" fill="#000000">: SimpleCore</text>
</a>
</g>
</g>
<g id="clust8" class="cluster">
<title>cluster_board_processor_cores_core</title>
<g id="a_clust8"><a xlink:title="LFSTSize=128&#10;LQEntries=32&#10;LSQCheckLoads=true&#10;LSQDepCheckShift=4&#10;SQEntries=32&#10;SSITSize=512&#10;activity=0&#10;backComSize=5&#10;branchPred=board.processor.cores.core.branchPred&#10;cacheLoadPorts=200&#10;cacheStorePorts=200&#10;checker=Null&#10;clk_domain=board.clk_domain&#10;commitToDecodeDelay=1&#10;commitToFetchDelay=1&#10;commitToIEWDelay=1&#10;commitToRenameDelay=1&#10;commitWidth=4&#10;cpu_id=0&#10;decodeToFetchDelay=1&#10;decodeToRenameDelay=1&#10;decodeWidth=8&#10;decoder=board.processor.cores.core.decoder&#10;dispatchWidth=8&#10;do_checkpoint_insts=true&#10;do_statistics_insts=true&#10;eventq_index=0&#10;fetchBufferSize=64&#10;fetchQueueSize=32&#10;fetchToDecodeDelay=1&#10;fetchTrapLatency=1&#10;fetchWidth=8&#10;forwardComSize=5&#10;fuPool=board.processor.cores.core.fuPool&#10;function_trace=false&#10;function_trace_start=0&#10;iewToCommitDelay=1&#10;iewToDecodeDelay=1&#10;iewToFetchDelay=1&#10;iewToRenameDelay=1&#10;interrupts=board.processor.cores.core.interrupts&#10;isa=board.processor.cores.core.isa&#10;issueToExecuteDelay=1&#10;issueWidth=4&#10;max_insts_all_threads=0&#10;max_insts_any_thread=0&#10;mmu=board.processor.cores.core.mmu&#10;&#10;eedsTSO=false&#10;&#10;umIQEntries=64&#10;&#10;umPhysCCRegs=0&#10;&#10;umPhysFloatRegs=256&#10;&#10;umPhysIntRegs=256&#10;&#10;umPhysMatRegs=2&#10;&#10;umPhysVecPredRegs=32&#10;&#10;umPhysVecRegs=256&#10;&#10;umROBEntries=192&#10;&#10;umRobs=1&#10;&#10;umThreads=1&#10;power_gating_on_idle=false&#10;power_model=&#10;power_state=board.processor.cores.core.power_state&#10;progress_interval=0&#10;pwr_gating_latency=300&#10;&#13;enameToDecodeDelay=1&#10;&#13;enameToFetchDelay=1&#10;&#13;enameToIEWDelay=2&#10;&#13;enameToROBDelay=1&#10;&#13;enameWidth=8&#10;simpoint_start_insts=&#10;smtCommitPolicy=RoundRobin&#10;smtFetchPolicy=RoundRobin&#10;smtIQPolicy=Partitioned&#10;smtIQThreshold=100&#10;smtLSQPolicy=Partitioned&#10;smtLSQThreshold=100&#10;smtNumFetchingThreads=1&#10;smtROBPolicy=Partitioned&#10;smtROBThreshold=100&#10;socket_id=0&#10;squashWidth=8&#10;store_set_clear_period=100000&#10;switched_out=false&#10;syscallRetryLatency=10000&#10;system=board&#10;tracer=board.processor.cores.core.tracer&#10;trapLatency=13&#10;wbWidth=8&#10;workload=board.processor.cores.core.workload">
<path fill="#bbc6d9" stroke="#000000" d="M456,-162C456,-162 644,-162 644,-162 650,-162 656,-168 656,-174 656,-174 656,-240 656,-240 656,-246 650,-252 644,-252 644,-252 456,-252 456,-252 450,-252 444,-246 444,-240 444,-240 444,-174 444,-174 444,-168 450,-162 456,-162"/>
<text text-anchor="middle" x="550" y="-236.8" font-family="Arial" font-size="14.00" fill="#000000">core </text>
<text text-anchor="middle" x="550" y="-221.8" font-family="Arial" font-size="14.00" fill="#000000">: RiscvO3CPU</text>
</a>
</g>
</g>
<g id="clust129" class="cluster">
<title>cluster_board_memory</title>
<g id="a_clust129"><a xlink:title="eventq_index=0&#10;thermal_domain=Null">
<path fill="#bab6ae" stroke="#000000" d="M49,-626C49,-626 165,-626 165,-626 171,-626 177,-632 177,-638 177,-638 177,-758 177,-758 177,-764 171,-770 165,-770 165,-770 49,-770 49,-770 43,-770 37,-764 37,-758 37,-758 37,-638 37,-638 37,-632 43,-626 49,-626"/>
<text text-anchor="middle" x="107" y="-754.8" font-family="Arial" font-size="14.00" fill="#000000">memory </text>
<text text-anchor="middle" x="107" y="-739.8" font-family="Arial" font-size="14.00" fill="#000000">: ChanneledMemory</text>
</a>
</g>
</g>
<g id="clust130" class="cluster">
<title>cluster_board_memory_mem_ctrl</title>
<g id="a_clust130"><a xlink:title="clk_domain=board.clk_domain&#10;command_window=10000&#10;disable_sanity_check=false&#10;dram=board.memory.mem_ctrl.dram&#10;eventq_index=0&#10;mem_sched_policy=frfcfs&#10;min_reads_per_switch=16&#10;min_writes_per_switch=16&#10;power_model=&#10;power_state=board.memory.mem_ctrl.power_state&#10;qos_policy=Null&#10;qos_priorities=1&#10;qos_priority_escalation=false&#10;qos_q_policy=fifo&#10;qos_requestors= &#160;&#160;&#160;&#160;&#160;&#160;&#160;&#160;&#160;&#160;&#160;&#160;&#160;&#160;&#10;qos_syncro_scheduler=false&#10;qos_turnaround_policy=Null&#10;static_backend_latency=10000&#10;static_frontend_latency=10000&#10;system=board&#10;write_high_thresh_perc=85&#10;write_low_thresh_perc=50">
<path fill="#9f9c95" stroke="#000000" d="M73,-634C73,-634 126,-634 126,-634 132,-634 138,-640 138,-646 138,-646 138,-712 138,-712 138,-718 132,-724 126,-724 126,-724 73,-724 73,-724 67,-724 61,-718 61,-712 61,-712 61,-646 61,-646 61,-640 67,-634 73,-634"/>
<text text-anchor="middle" x="99.5" y="-708.8" font-family="Arial" font-size="14.00" fill="#000000">mem_ctrl </text>
<text text-anchor="middle" x="99.5" y="-693.8" font-family="Arial" font-size="14.00" fill="#000000">: MemCtrl</text>
</a>
</g>
</g>
<g id="clust134" class="cluster">
<title>cluster_board_cache_hierarchy</title>
<g id="a_clust134"><a xlink:title="eventq_index=0&#10;thermal_domain=Null">
<path fill="#bab6ae" stroke="#000000" d="M36,-24C36,-24 408,-24 408,-24 414,-24 420,-30 420,-36 420,-36 420,-606 420,-606 420,-612 414,-618 408,-618 408,-618 36,-618 36,-618 30,-618 24,-612 24,-606 24,-606 24,-36 24,-36 24,-30 30,-24 36,-24"/>
<text text-anchor="middle" x="222" y="-602.8" font-family="Arial" font-size="14.00" fill="#000000">cache_hierarchy </text>
<text text-anchor="middle" x="222" y="-587.8" font-family="Arial" font-size="14.00" fill="#000000">: L1L2Hierarchy</text>
</a>
</g>
</g>
<g id="clust135" class="cluster">
<title>cluster_board_cache_hierarchy_l2_bus</title>
<g id="a_clust135"><a xlink:title="clk_domain=board.clk_domain&#10;eventq_index=0&#10;forward_latency=0&#10;frontend_latency=1&#10;header_latency=1&#10;max_outstanding_snoops=512&#10;max_routing_table_size=512&#10;point_of_coherency=false&#10;point_of_unification=true&#10;power_model=&#10;power_state=board.cache_hierarchy.l2_bus.power_state&#10;&#13;esponse_latency=1&#10;snoop_filter=board.cache_hierarchy.l2_bus.snoop_filter&#10;snoop_response_latency=1&#10;system=board&#10;use_default_range=false&#10;width=32">
<path fill="#6f798c" stroke="#000000" d="M88,-162C88,-162 324,-162 324,-162 330,-162 336,-168 336,-174 336,-174 336,-240 336,-240 336,-246 330,-252 324,-252 324,-252 88,-252 88,-252 82,-252 76,-246 76,-240 76,-240 76,-174 76,-174 76,-168 82,-162 88,-162"/>
<text text-anchor="middle" x="206" y="-236.8" font-family="Arial" font-size="14.00" fill="#000000">l2_bus </text>
<text text-anchor="middle" x="206" y="-221.8" font-family="Arial" font-size="14.00" fill="#000000">: L2XBar</text>
</a>
</g>
</g>
<g id="clust138" class="cluster">
<title>cluster_board_cache_hierarchy_membus</title>
<g id="a_clust138"><a xlink:title="clk_domain=board.clk_domain&#10;eventq_index=0&#10;forward_latency=4&#10;frontend_latency=3&#10;header_latency=1&#10;max_outstanding_snoops=512&#10;max_routing_table_size=512&#10;point_of_coherency=true&#10;point_of_unification=true&#10;power_model=&#10;power_state=board.cache_hierarchy.membus.power_state&#10;&#13;esponse_latency=2&#10;snoop_filter=board.cache_hierarchy.membus.snoop_filter&#10;snoop_response_latency=4&#10;system=board&#10;use_default_range=false&#10;width=16">
<path fill="#6f798c" stroke="#000000" d="M44,-482C44,-482 280,-482 280,-482 286,-482 292,-488 292,-494 292,-494 292,-560 292,-560 292,-566 286,-572 280,-572 280,-572 44,-572 44,-572 38,-572 32,-566 32,-560 32,-560 32,-494 32,-494 32,-488 38,-482 44,-482"/>
<text text-anchor="middle" x="162" y="-556.8" font-family="Arial" font-size="14.00" fill="#000000">membus </text>
<text text-anchor="middle" x="162" y="-541.8" font-family="Arial" font-size="14.00" fill="#000000">: SystemXBar</text>
</a>
</g>
</g>
<g id="clust141" class="cluster">
<title>cluster_board_cache_hierarchy_l1_icaches</title>
<g id="a_clust141"><a xlink:title="addr_ranges=0:18446744073709551615&#10;assoc=2&#10;clk_domain=board.clk_domain&#10;clusivity=mostly_incl&#10;compressor=Null&#10;data_latency=2&#10;demand_mshr_reserve=1&#10;eventq_index=0&#10;is_read_only=false&#10;max_miss_count=0&#10;move_contractions=true&#10;mshrs=4&#10;partitioning_manager=Null&#10;power_model=&#10;power_state=board.cache_hierarchy.l1_icaches.power_state&#10;prefetcher=Null&#10;&#13;eplace_expansions=true&#10;&#13;eplacement_policy=board.cache_hierarchy.l1_icaches.replacement_policy&#10;&#13;esponse_latency=2&#10;sequential_access=false&#10;size=16384&#10;system=board&#10;tag_latency=2&#10;tags=board.cache_hierarchy.l1_icaches.tags&#10;tgts_per_mshr=20&#10;warmup_percentage=0&#10;write_allocator=Null&#10;write_buffers=8&#10;writeback_clean=false">
<path fill="#9f9c95" stroke="#000000" d="M238,-32C238,-32 400,-32 400,-32 406,-32 412,-38 412,-44 412,-44 412,-110 412,-110 412,-116 406,-122 400,-122 400,-122 238,-122 238,-122 232,-122 226,-116 226,-110 226,-110 226,-44 226,-44 226,-38 232,-32 238,-32"/>
<text text-anchor="middle" x="319" y="-106.8" font-family="Arial" font-size="14.00" fill="#000000">l1_icaches </text>
<text text-anchor="middle" x="319" y="-91.8" font-family="Arial" font-size="14.00" fill="#000000">: Cache</text>
</a>
</g>
</g>
<g id="clust147" class="cluster">
<title>cluster_board_cache_hierarchy_l1_dcaches</title>
<g id="a_clust147"><a xlink:title="addr_ranges=0:18446744073709551615&#10;assoc=2&#10;clk_domain=board.clk_domain&#10;clusivity=mostly_incl&#10;compressor=Null&#10;data_latency=2&#10;demand_mshr_reserve=1&#10;eventq_index=0&#10;is_read_only=false&#10;max_miss_count=0&#10;move_contractions=true&#10;mshrs=4&#10;partitioning_manager=Null&#10;power_model=&#10;power_state=board.cache_hierarchy.l1_dcaches.power_state&#10;prefetcher=board.cache_hierarchy.l1_dcaches.prefetcher&#10;&#13;eplace_expansions=true&#10;&#13;eplacement_policy=board.cache_hierarchy.l1_dcaches.replacement_policy&#10;&#13;esponse_latency=2&#10;sequential_access=false&#10;size=16384&#10;system=board&#10;tag_latency=2&#10;tags=board.cache_hierarchy.l1_dcaches.tags&#10;tgts_per_mshr=20&#10;warmup_percentage=0&#10;write_allocator=Null&#10;write_buffers=8&#10;writeback_clean=false">
<path fill="#9f9c95" stroke="#000000" d="M44,-32C44,-32 206,-32 206,-32 212,-32 218,-38 218,-44 218,-44 218,-110 218,-110 218,-116 212,-122 206,-122 206,-122 44,-122 44,-122 38,-122 32,-116 32,-110 32,-110 32,-44 32,-44 32,-38 38,-32 44,-32"/>
<text text-anchor="middle" x="125" y="-106.8" font-family="Arial" font-size="14.00" fill="#000000">l1_dcaches </text>
<text text-anchor="middle" x="125" y="-91.8" font-family="Arial" font-size="14.00" fill="#000000">: Cache</text>
</a>
</g>
</g>
<g id="clust157" class="cluster">
<title>cluster_board_cache_hierarchy_l2_cache</title>
<g id="a_clust157"><a xlink:title="addr_ranges=0:18446744073709551615&#10;assoc=16&#10;clk_domain=board.clk_domain&#10;clusivity=mostly_incl&#10;compressor=Null&#10;data_latency=20&#10;demand_mshr_reserve=1&#10;eventq_index=0&#10;is_read_only=false&#10;max_miss_count=0&#10;move_contractions=true&#10;mshrs=20&#10;partitioning_manager=Null&#10;power_model=&#10;power_state=board.cache_hierarchy.l2_cache.power_state&#10;prefetcher=board.cache_hierarchy.l2_cache.prefetcher&#10;&#13;eplace_expansions=true&#10;&#13;eplacement_policy=board.cache_hierarchy.l2_cache.replacement_policy&#10;&#13;esponse_latency=20&#10;sequential_access=false&#10;size=262144&#10;system=board&#10;tag_latency=20&#10;tags=board.cache_hierarchy.l2_cache.tags&#10;tgts_per_mshr=20&#10;warmup_percentage=0&#10;write_allocator=Null&#10;write_buffers=8&#10;writeback_clean=false">
<path fill="#9f9c95" stroke="#000000" d="M119,-352C119,-352 281,-352 281,-352 287,-352 293,-358 293,-364 293,-364 293,-430 293,-430 293,-436 287,-442 281,-442 281,-442 119,-442 119,-442 113,-442 107,-436 107,-430 107,-430 107,-364 107,-364 107,-358 113,-352 119,-352"/>
<text text-anchor="middle" x="200" y="-426.8" font-family="Arial" font-size="14.00" fill="#000000">l2_cache </text>
<text text-anchor="middle" x="200" y="-411.8" font-family="Arial" font-size="14.00" fill="#000000">: Cache</text>
</a>
</g>
</g>
<!-- board_processor_cores_core_icache_port -->
<g id="node1" class="node">
<title>board_processor_cores_core_icache_port</title>
<path fill="#959ead" stroke="#000000" d="M636,-206C636,-206 574,-206 574,-206 568,-206 562,-200 562,-194 562,-194 562,-182 562,-182 562,-176 568,-170 574,-170 574,-170 636,-170 636,-170 642,-170 648,-176 648,-182 648,-182 648,-194 648,-194 648,-200 642,-206 636,-206"/>
<text text-anchor="middle" x="605" y="-184.3" font-family="Arial" font-size="14.00" fill="#000000">icache_port</text>
</g>
<!-- board_cache_hierarchy_l1_icaches_cpu_side -->
<g id="node8" class="node">
<title>board_cache_hierarchy_l1_icaches_cpu_side</title>
<path fill="#7f7c77" stroke="#000000" d="M391.5,-76C391.5,-76 344.5,-76 344.5,-76 338.5,-76 332.5,-70 332.5,-64 332.5,-64 332.5,-52 332.5,-52 332.5,-46 338.5,-40 344.5,-40 344.5,-40 391.5,-40 391.5,-40 397.5,-40 403.5,-46 403.5,-52 403.5,-52 403.5,-64 403.5,-64 403.5,-70 397.5,-76 391.5,-76"/>
<text text-anchor="middle" x="368" y="-54.3" font-family="Arial" font-size="14.00" fill="#000000">cpu_side</text>
</g>
<!-- board_processor_cores_core_icache_port&#45;&gt;board_cache_hierarchy_l1_icaches_cpu_side -->
<g id="edge1" class="edge">
<title>board_processor_cores_core_icache_port&#45;&gt;board_cache_hierarchy_l1_icaches_cpu_side</title>
<path fill="none" stroke="black" d="M585.53,-169.92C576.08,-162.09 564.34,-153.01 553,-146 507.49,-117.87 451.44,-92.71 413.04,-76.77"/>
<polygon fill="black" stroke="black" points="414.25,-73.48 403.67,-72.92 411.59,-79.96 414.25,-73.48"/>
</g>
<!-- board_processor_cores_core_dcache_port -->
<g id="node2" class="node">
<title>board_processor_cores_core_dcache_port</title>
<path fill="#959ead" stroke="#000000" d="M531.5,-206C531.5,-206 464.5,-206 464.5,-206 458.5,-206 452.5,-200 452.5,-194 452.5,-194 452.5,-182 452.5,-182 452.5,-176 458.5,-170 464.5,-170 464.5,-170 531.5,-170 531.5,-170 537.5,-170 543.5,-176 543.5,-182 543.5,-182 543.5,-194 543.5,-194 543.5,-200 537.5,-206 531.5,-206"/>
<text text-anchor="middle" x="498" y="-184.3" font-family="Arial" font-size="14.00" fill="#000000">dcache_port</text>
</g>
<!-- board_cache_hierarchy_l1_dcaches_cpu_side -->
<g id="node10" class="node">
<title>board_cache_hierarchy_l1_dcaches_cpu_side</title>
<path fill="#7f7c77" stroke="#000000" d="M197.5,-76C197.5,-76 150.5,-76 150.5,-76 144.5,-76 138.5,-70 138.5,-64 138.5,-64 138.5,-52 138.5,-52 138.5,-46 144.5,-40 150.5,-40 150.5,-40 197.5,-40 197.5,-40 203.5,-40 209.5,-46 209.5,-52 209.5,-52 209.5,-64 209.5,-64 209.5,-70 203.5,-76 197.5,-76"/>
<text text-anchor="middle" x="174" y="-54.3" font-family="Arial" font-size="14.00" fill="#000000">cpu_side</text>
</g>
<!-- board_processor_cores_core_dcache_port&#45;&gt;board_cache_hierarchy_l1_dcaches_cpu_side -->
<g id="edge2" class="edge">
<title>board_processor_cores_core_dcache_port&#45;&gt;board_cache_hierarchy_l1_dcaches_cpu_side</title>
<path fill="none" stroke="black" d="M452.18,-174.42C420.73,-165.96 377.96,-154.78 340,-146 287.86,-133.94 267.34,-150.44 222,-122 207.61,-112.98 195.94,-98 187.7,-84.91"/>
<polygon fill="black" stroke="black" points="190.68,-83.06 182.56,-76.25 184.66,-86.63 190.68,-83.06"/>
</g>
<!-- board_memory_mem_ctrl_port -->
<g id="node3" class="node">
<title>board_memory_mem_ctrl_port</title>
<path fill="#7f7c77" stroke="#000000" d="M114,-678C114,-678 84,-678 84,-678 78,-678 72,-672 72,-666 72,-666 72,-654 72,-654 72,-648 78,-642 84,-642 84,-642 114,-642 114,-642 120,-642 126,-648 126,-654 126,-654 126,-666 126,-666 126,-672 120,-678 114,-678"/>
<text text-anchor="middle" x="99" y="-656.3" font-family="Arial" font-size="14.00" fill="#000000">port</text>
</g>
<!-- board_cache_hierarchy_membus_mem_side_ports -->
<g id="node7" class="node">
<title>board_cache_hierarchy_membus_mem_side_ports</title>
<path fill="#586070" stroke="#000000" d="M146,-526C146,-526 52,-526 52,-526 46,-526 40,-520 40,-514 40,-514 40,-502 40,-502 40,-496 46,-490 52,-490 52,-490 146,-490 146,-490 152,-490 158,-496 158,-502 158,-502 158,-514 158,-514 158,-520 152,-526 146,-526"/>
<text text-anchor="middle" x="99" y="-504.3" font-family="Arial" font-size="14.00" fill="#000000">mem_side_ports</text>
</g>
<!-- board_memory_mem_ctrl_port&#45;&gt;board_cache_hierarchy_membus_mem_side_ports -->
<g id="edge3" class="edge">
<title>board_memory_mem_ctrl_port&#45;&gt;board_cache_hierarchy_membus_mem_side_ports</title>
<path fill="none" stroke="black" d="M99,-631.73C99,-600.94 99,-551.77 99,-526.01"/>
<polygon fill="black" stroke="black" points="95.5,-631.79 99,-641.79 102.5,-631.79 95.5,-631.79"/>
</g>
<!-- board_cache_hierarchy_l2_bus_cpu_side_ports -->
<g id="node4" class="node">
<title>board_cache_hierarchy_l2_bus_cpu_side_ports</title>
<path fill="#586070" stroke="#000000" d="M316,-206C316,-206 232,-206 232,-206 226,-206 220,-200 220,-194 220,-194 220,-182 220,-182 220,-176 226,-170 232,-170 232,-170 316,-170 316,-170 322,-170 328,-176 328,-182 328,-182 328,-194 328,-194 328,-200 322,-206 316,-206"/>
<text text-anchor="middle" x="274" y="-184.3" font-family="Arial" font-size="14.00" fill="#000000">cpu_side_ports</text>
</g>
<!-- board_cache_hierarchy_l1_icaches_mem_side -->
<g id="node9" class="node">
<title>board_cache_hierarchy_l1_icaches_mem_side</title>
<path fill="#7f7c77" stroke="#000000" d="M302,-76C302,-76 246,-76 246,-76 240,-76 234,-70 234,-64 234,-64 234,-52 234,-52 234,-46 240,-40 246,-40 246,-40 302,-40 302,-40 308,-40 314,-46 314,-52 314,-52 314,-64 314,-64 314,-70 308,-76 302,-76"/>
<text text-anchor="middle" x="274" y="-54.3" font-family="Arial" font-size="14.00" fill="#000000">mem_side</text>
</g>
<!-- board_cache_hierarchy_l2_bus_cpu_side_ports&#45;&gt;board_cache_hierarchy_l1_icaches_mem_side -->
<g id="edge4" class="edge">
<title>board_cache_hierarchy_l2_bus_cpu_side_ports&#45;&gt;board_cache_hierarchy_l1_icaches_mem_side</title>
<path fill="none" stroke="black" d="M274,-159.72C274,-134.52 274,-97.84 274,-76.4"/>
<polygon fill="black" stroke="black" points="270.5,-159.74 274,-169.74 277.5,-159.74 270.5,-159.74"/>
</g>
<!-- board_cache_hierarchy_l1_dcaches_mem_side -->
<g id="node11" class="node">
<title>board_cache_hierarchy_l1_dcaches_mem_side</title>
<path fill="#7f7c77" stroke="#000000" d="M108,-76C108,-76 52,-76 52,-76 46,-76 40,-70 40,-64 40,-64 40,-52 40,-52 40,-46 46,-40 52,-40 52,-40 108,-40 108,-40 114,-40 120,-46 120,-52 120,-52 120,-64 120,-64 120,-70 114,-76 108,-76"/>
<text text-anchor="middle" x="80" y="-54.3" font-family="Arial" font-size="14.00" fill="#000000">mem_side</text>
</g>
<!-- board_cache_hierarchy_l2_bus_cpu_side_ports&#45;&gt;board_cache_hierarchy_l1_dcaches_mem_side -->
<g id="edge5" class="edge">
<title>board_cache_hierarchy_l2_bus_cpu_side_ports&#45;&gt;board_cache_hierarchy_l1_dcaches_mem_side</title>
<path fill="none" stroke="black" d="M243,-164.26C233.12,-157.72 221.91,-151.02 211,-146 176.5,-130.14 160.4,-143.35 129,-122 111.7,-110.23 97.76,-90.43 89.24,-76.16"/>
<polygon fill="black" stroke="black" points="241.07,-167.18 251.31,-169.91 245.01,-161.39 241.07,-167.18"/>
</g>
<!-- board_cache_hierarchy_l2_bus_mem_side_ports -->
<g id="node5" class="node">
<title>board_cache_hierarchy_l2_bus_mem_side_ports</title>
<path fill="#586070" stroke="#000000" d="M190,-206C190,-206 96,-206 96,-206 90,-206 84,-200 84,-194 84,-194 84,-182 84,-182 84,-176 90,-170 96,-170 96,-170 190,-170 190,-170 196,-170 202,-176 202,-182 202,-182 202,-194 202,-194 202,-200 196,-206 190,-206"/>
<text text-anchor="middle" x="143" y="-184.3" font-family="Arial" font-size="14.00" fill="#000000">mem_side_ports</text>
</g>
<!-- board_cache_hierarchy_membus_cpu_side_ports -->
<g id="node6" class="node">
<title>board_cache_hierarchy_membus_cpu_side_ports</title>
<path fill="#586070" stroke="#000000" d="M272,-526C272,-526 188,-526 188,-526 182,-526 176,-520 176,-514 176,-514 176,-502 176,-502 176,-496 182,-490 188,-490 188,-490 272,-490 272,-490 278,-490 284,-496 284,-502 284,-502 284,-514 284,-514 284,-520 278,-526 272,-526"/>
<text text-anchor="middle" x="230" y="-504.3" font-family="Arial" font-size="14.00" fill="#000000">cpu_side_ports</text>
</g>
<!-- board_cache_hierarchy_l2_cache_mem_side -->
<g id="node13" class="node">
<title>board_cache_hierarchy_l2_cache_mem_side</title>
<path fill="#7f7c77" stroke="#000000" d="M183,-396C183,-396 127,-396 127,-396 121,-396 115,-390 115,-384 115,-384 115,-372 115,-372 115,-366 121,-360 127,-360 127,-360 183,-360 183,-360 189,-360 195,-366 195,-372 195,-372 195,-384 195,-384 195,-390 189,-396 183,-396"/>
<text text-anchor="middle" x="155" y="-374.3" font-family="Arial" font-size="14.00" fill="#000000">mem_side</text>
</g>
<!-- board_cache_hierarchy_membus_cpu_side_ports&#45;&gt;board_cache_hierarchy_l2_cache_mem_side -->
<g id="edge6" class="edge">
<title>board_cache_hierarchy_membus_cpu_side_ports&#45;&gt;board_cache_hierarchy_l2_cache_mem_side</title>
<path fill="none" stroke="black" d="M214.8,-481.06C200.02,-455.83 177.98,-418.22 165.19,-396.4"/>
<polygon fill="black" stroke="black" points="211.81,-482.88 219.89,-489.74 217.85,-479.34 211.81,-482.88"/>
</g>
<!-- board_cache_hierarchy_l2_cache_cpu_side -->
<g id="node12" class="node">
<title>board_cache_hierarchy_l2_cache_cpu_side</title>
<path fill="#7f7c77" stroke="#000000" d="M272.5,-396C272.5,-396 225.5,-396 225.5,-396 219.5,-396 213.5,-390 213.5,-384 213.5,-384 213.5,-372 213.5,-372 213.5,-366 219.5,-360 225.5,-360 225.5,-360 272.5,-360 272.5,-360 278.5,-360 284.5,-366 284.5,-372 284.5,-372 284.5,-384 284.5,-384 284.5,-390 278.5,-396 272.5,-396"/>
<text text-anchor="middle" x="249" y="-374.3" font-family="Arial" font-size="14.00" fill="#000000">cpu_side</text>
</g>
<!-- board_cache_hierarchy_l2_cache_cpu_side&#45;&gt;board_cache_hierarchy_l2_bus_mem_side_ports -->
<g id="edge7" class="edge">
<title>board_cache_hierarchy_l2_cache_cpu_side&#45;&gt;board_cache_hierarchy_l2_bus_mem_side_ports</title>
<path fill="none" stroke="black" d="M218.59,-352.87C215.85,-350.04 213.26,-347.07 211,-344 178.08,-299.27 156.7,-236.1 147.77,-206.1"/>
<polygon fill="black" stroke="black" points="216.42,-355.64 226.09,-359.99 221.24,-350.56 216.42,-355.64"/>
</g>
</g>
</svg>
